<svg width="46" height="48" viewBox="0 0 46 48" fill="none" xmlns="http://www.w3.org/2000/svg">
<path d="M19.8539 16.8394L19.8207 16.899L19.8539 16.9068V16.8394Z" fill="#4CAF4F" stroke="#4CAF4F" stroke-width="1.33333"/>
<path d="M11.3119 26.4542C11.3539 26.3752 11.3972 26.295 11.4408 26.213C11.4428 26.2092 11.4456 26.206 11.4476 26.2022L11.392 26.1739C11.3749 26.2059 11.3268 26.2952 11.2562 26.4278C11.275 26.4368 11.293 26.4468 11.3119 26.4542Z" fill="#4CAF4F" stroke="#4CAF4F" stroke-width="1.33333"/>
<mask id="path-3-inside-1_16_1455" fill="white">
<path d="M37.9674 36.6577C37.302 37.8157 36.2077 38.6083 34.8858 38.8901C33.5755 39.1688 32.1976 38.9117 31.005 38.1656L24.6158 34.1661C24.3049 33.9715 24.085 33.6624 23.9969 33.2953C23.9095 32.9289 23.9642 32.5484 24.1505 32.2243C24.2667 32.0216 24.4297 31.8619 24.6187 31.7439L24.6169 31.7427C24.306 31.5481 24.0861 31.239 23.9985 30.8724C23.9105 30.5058 23.9651 30.125 24.1516 29.8004C24.2717 29.5919 24.4363 29.4289 24.6242 29.3132C24.3514 29.1174 24.155 28.8331 24.0742 28.4957C23.9861 28.1288 24.0407 27.7483 24.2272 27.4242C24.4135 27.0997 24.71 26.8705 25.0613 26.7789C25.171 26.7501 25.2823 26.736 25.3925 26.736C25.6088 26.7362 25.821 26.7935 26.0161 26.9C26.0281 26.6363 26.1033 26.3774 26.2509 26.1552C26.6558 25.5458 27.4668 25.3771 28.0985 25.7726L33.3306 29.0474L32.6562 27.7799C32.3974 27.296 32.4069 26.699 32.6812 26.2216C32.8149 25.9893 33.0059 25.7964 33.2341 25.6628C33.4218 25.5544 33.625 25.5031 33.8254 25.5031C34.256 25.5033 34.6742 25.7403 34.8968 26.1599C35.6726 27.6185 37.1365 30.3694 37.2395 30.5614C37.2614 30.5946 37.3275 30.6936 37.3842 30.7777C37.4381 30.8575 37.4964 30.9339 37.5567 31.0097C38.8631 32.6622 39.0206 34.8262 37.9674 36.6578L37.9674 36.6577ZM37.0004 31.4892C36.9286 31.3985 36.8582 31.3059 36.7941 31.2105C36.599 30.9217 36.594 30.9141 36.5793 30.8385C36.3513 30.4448 35.795 29.3997 34.2658 26.5249C34.1317 26.2726 33.8269 26.1805 33.5841 26.3204C33.4647 26.3901 33.3688 26.4874 33.2988 26.6093C33.157 26.8559 33.1516 27.1641 33.2854 27.4143L34.6126 29.9095C34.6918 30.0584 34.6654 30.2441 34.5482 30.3623C34.4313 30.4808 34.2525 30.5016 34.112 30.4144L27.7274 26.4177C27.4265 26.2295 27.0298 26.3032 26.8437 26.5836C26.7367 26.7447 26.7026 26.937 26.7473 27.1247C26.7884 27.2963 26.8916 27.4409 27.0377 27.5323C27.0381 27.5326 27.0384 27.533 27.0388 27.5333L31.2133 30.1465C31.384 30.2535 31.4393 30.4844 31.3368 30.6627C31.2343 30.8406 31.0132 30.8988 30.8421 30.7916L25.7171 27.5835C25.5717 27.4925 25.4006 27.4657 25.2362 27.5088C25.0714 27.5517 24.9327 27.6591 24.8454 27.8115C24.7578 27.9635 24.7325 28.1418 24.7731 28.3133C24.8142 28.4849 24.9174 28.6297 25.0632 28.7212L26.0605 29.3453L30.188 31.9293C30.3587 32.0363 30.414 32.2672 30.3115 32.4455C30.209 32.6234 29.988 32.6814 29.8168 32.5744L25.6415 29.9604C25.3412 29.7719 24.9501 29.8742 24.7695 30.188C24.6819 30.3402 24.6566 30.5186 24.6973 30.6901C24.7383 30.8616 24.8415 31.0062 24.9876 31.0979L26.0113 31.7387L29.163 33.7119C29.3337 33.8188 29.389 34.0497 29.2865 34.2281C29.184 34.4059 28.9629 34.4644 28.7918 34.3569L25.6401 32.3838C25.4947 32.2928 25.3242 32.266 25.159 32.3091C24.9946 32.352 24.8555 32.4594 24.7681 32.6114C24.6808 32.7636 24.6553 32.9421 24.6959 33.1134C24.737 33.2849 24.8402 33.4296 24.9863 33.5212L31.3755 37.5207C32.4123 38.1698 33.608 38.3945 34.741 38.1533C35.8622 37.9144 36.7884 37.246 37.3487 36.2711C38.2544 34.6968 38.1241 32.9091 37.0008 31.4892L37.0004 31.4892Z"/>
</mask>
<path d="M37.9674 36.6577C37.302 37.8157 36.2077 38.6083 34.8858 38.8901C33.5755 39.1688 32.1976 38.9117 31.005 38.1656L24.6158 34.1661C24.3049 33.9715 24.085 33.6624 23.9969 33.2953C23.9095 32.9289 23.9642 32.5484 24.1505 32.2243C24.2667 32.0216 24.4297 31.8619 24.6187 31.7439L24.6169 31.7427C24.306 31.5481 24.0861 31.239 23.9985 30.8724C23.9105 30.5058 23.9651 30.125 24.1516 29.8004C24.2717 29.5919 24.4363 29.4289 24.6242 29.3132C24.3514 29.1174 24.155 28.8331 24.0742 28.4957C23.9861 28.1288 24.0407 27.7483 24.2272 27.4242C24.4135 27.0997 24.71 26.8705 25.0613 26.7789C25.171 26.7501 25.2823 26.736 25.3925 26.736C25.6088 26.7362 25.821 26.7935 26.0161 26.9C26.0281 26.6363 26.1033 26.3774 26.2509 26.1552C26.6558 25.5458 27.4668 25.3771 28.0985 25.7726L33.3306 29.0474L32.6562 27.7799C32.3974 27.296 32.4069 26.699 32.6812 26.2216C32.8149 25.9893 33.0059 25.7964 33.2341 25.6628C33.4218 25.5544 33.625 25.5031 33.8254 25.5031C34.256 25.5033 34.6742 25.7403 34.8968 26.1599C35.6726 27.6185 37.1365 30.3694 37.2395 30.5614C37.2614 30.5946 37.3275 30.6936 37.3842 30.7777C37.4381 30.8575 37.4964 30.9339 37.5567 31.0097C38.8631 32.6622 39.0206 34.8262 37.9674 36.6578L37.9674 36.6577ZM37.0004 31.4892C36.9286 31.3985 36.8582 31.3059 36.7941 31.2105C36.599 30.9217 36.594 30.9141 36.5793 30.8385C36.3513 30.4448 35.795 29.3997 34.2658 26.5249C34.1317 26.2726 33.8269 26.1805 33.5841 26.3204C33.4647 26.3901 33.3688 26.4874 33.2988 26.6093C33.157 26.8559 33.1516 27.1641 33.2854 27.4143L34.6126 29.9095C34.6918 30.0584 34.6654 30.2441 34.5482 30.3623C34.4313 30.4808 34.2525 30.5016 34.112 30.4144L27.7274 26.4177C27.4265 26.2295 27.0298 26.3032 26.8437 26.5836C26.7367 26.7447 26.7026 26.937 26.7473 27.1247C26.7884 27.2963 26.8916 27.4409 27.0377 27.5323C27.0381 27.5326 27.0384 27.533 27.0388 27.5333L31.2133 30.1465C31.384 30.2535 31.4393 30.4844 31.3368 30.6627C31.2343 30.8406 31.0132 30.8988 30.8421 30.7916L25.7171 27.5835C25.5717 27.4925 25.4006 27.4657 25.2362 27.5088C25.0714 27.5517 24.9327 27.6591 24.8454 27.8115C24.7578 27.9635 24.7325 28.1418 24.7731 28.3133C24.8142 28.4849 24.9174 28.6297 25.0632 28.7212L26.0605 29.3453L30.188 31.9293C30.3587 32.0363 30.414 32.2672 30.3115 32.4455C30.209 32.6234 29.988 32.6814 29.8168 32.5744L25.6415 29.9604C25.3412 29.7719 24.9501 29.8742 24.7695 30.188C24.6819 30.3402 24.6566 30.5186 24.6973 30.6901C24.7383 30.8616 24.8415 31.0062 24.9876 31.0979L26.0113 31.7387L29.163 33.7119C29.3337 33.8188 29.389 34.0497 29.2865 34.2281C29.184 34.4059 28.9629 34.4644 28.7918 34.3569L25.6401 32.3838C25.4947 32.2928 25.3242 32.266 25.159 32.3091C24.9946 32.352 24.8555 32.4594 24.7681 32.6114C24.6808 32.7636 24.6553 32.9421 24.6959 33.1134C24.737 33.2849 24.8402 33.4296 24.9863 33.5212L31.3755 37.5207C32.4123 38.1698 33.608 38.3945 34.741 38.1533C35.8622 37.9144 36.7884 37.246 37.3487 36.2711C38.2544 34.6968 38.1241 32.9091 37.0008 31.4892L37.0004 31.4892Z" fill="#4CAF4F"/>
<path d="M37.9674 36.6577L37.5205 35.4015L40.9225 34.1914L39.1235 37.3221L37.9674 36.6577ZM34.8858 38.8901L35.1637 40.1941L35.1632 40.1942L34.8858 38.8901ZM31.005 38.1656L30.2978 39.2959L30.2975 39.2957L31.005 38.1656ZM24.6158 34.1661L25.3232 33.0359L25.3232 33.0359L24.6158 34.1661ZM23.9969 33.2953L22.7004 33.6063L22.7 33.6046L23.9969 33.2953ZM24.1505 32.2243L25.3069 32.8879L25.3065 32.8885L24.1505 32.2243ZM24.6187 31.7439L25.3471 30.6271L27.0968 31.7682L25.325 32.8748L24.6187 31.7439ZM24.6169 31.7427L25.3244 30.6125L25.3349 30.6191L25.3453 30.6259L24.6169 31.7427ZM23.9985 30.8724L25.295 30.561L25.2954 30.5625L23.9985 30.8724ZM24.1516 29.8004L22.9955 29.1362L22.9963 29.1349L24.1516 29.8004ZM24.6242 29.3132L25.4017 28.2301L27.029 29.3982L25.3233 30.4486L24.6242 29.3132ZM24.0742 28.4957L25.3707 28.1845L25.3708 28.185L24.0742 28.4957ZM24.2272 27.4242L25.3835 28.0881L25.383 28.089L24.2272 27.4242ZM25.0613 26.7789L25.3992 28.0687L25.3978 28.069L25.0613 26.7789ZM25.3925 26.736V25.4026L25.394 25.4027L25.3925 26.736ZM26.0161 26.9L27.3481 26.9604L27.2513 29.0933L25.3772 28.0703L26.0161 26.9ZM26.2509 26.1552L27.3616 26.8929L27.3614 26.8932L26.2509 26.1552ZM28.0985 25.7726L27.3911 26.9028L27.3909 26.9027L28.0985 25.7726ZM33.3306 29.0474L34.5077 28.4211L36.8498 32.8231L32.6232 30.1776L33.3306 29.0474ZM32.6562 27.7799L33.832 27.1512L33.8332 27.1536L32.6562 27.7799ZM32.6812 26.2216L31.5252 25.5572L31.5255 25.5567L32.6812 26.2216ZM33.2341 25.6628L32.5607 24.512L32.5672 24.5082L33.2341 25.6628ZM33.8254 25.5031V24.1697H33.8262L33.8254 25.5031ZM34.8968 26.1599L33.7196 26.786L33.7189 26.7847L34.8968 26.1599ZM37.2395 30.5614L36.1263 31.2953L36.0929 31.2447L36.0643 31.1913L37.2395 30.5614ZM37.3842 30.7777L36.2794 31.5241L36.2785 31.5227L37.3842 30.7777ZM37.5567 31.0097L38.6006 30.1802L38.6026 30.1828L37.5567 31.0097ZM37.9674 36.6578L38.4143 37.914L35.0107 39.1247L36.8115 35.9931L37.9674 36.6578ZM37.0004 31.4892L37.1382 32.8154L36.4096 32.8911L35.955 32.3168L37.0004 31.4892ZM36.7941 31.2105L37.899 30.4643L37.9007 30.4668L36.7941 31.2105ZM36.5793 30.8385L37.7331 30.1702L37.8455 30.3643L37.8883 30.5845L36.5793 30.8385ZM34.2658 26.5249L33.0886 27.1511L33.0884 27.1507L34.2658 26.5249ZM33.5841 26.3204L32.9119 25.1689L32.9181 25.1653L33.5841 26.3204ZM33.2988 26.6093L34.4548 27.2735L34.4547 27.2737L33.2988 26.6093ZM33.2854 27.4143L34.4611 26.7853L34.4626 26.7882L33.2854 27.4143ZM34.6126 29.9095L33.4356 30.536L33.4354 30.5356L34.6126 29.9095ZM34.5482 30.3623L33.5992 29.4258L33.6011 29.4239L34.5482 30.3623ZM34.112 30.4144L33.4088 31.5473L33.4046 31.5446L34.112 30.4144ZM27.7274 26.4177L28.4345 25.2873L28.4349 25.2875L27.7274 26.4177ZM26.8437 26.5836L27.9547 27.3208L27.9544 27.3212L26.8437 26.5836ZM26.7473 27.1247L25.4507 27.4354L25.4502 27.4335L26.7473 27.1247ZM27.0377 27.5323L26.4208 28.7144L26.3746 28.6902L26.3304 28.6626L27.0377 27.5323ZM27.0388 27.5333L27.6557 26.3512L27.702 26.3754L27.7463 26.4031L27.0388 27.5333ZM31.2133 30.1465L31.9208 29.0164L31.9213 29.0167L31.2133 30.1465ZM31.3368 30.6627L32.4928 31.3271L32.492 31.3284L31.3368 30.6627ZM30.8421 30.7916L31.5496 29.6614L31.5499 29.6616L30.8421 30.7916ZM25.7171 27.5835L26.4241 26.453L26.4246 26.4533L25.7171 27.5835ZM25.2362 27.5088L25.5745 28.7985L25.5719 28.7992L25.2362 27.5088ZM24.8454 27.8115L26.0021 28.4746L26.0005 28.4774L24.8454 27.8115ZM24.7731 28.3133L23.4765 28.624L23.4757 28.6208L24.7731 28.3133ZM25.0632 28.7212L24.3559 29.8514L24.3552 29.8509L25.0632 28.7212ZM26.0605 29.3453L26.7678 28.215L26.768 28.2151L26.0605 29.3453ZM30.188 31.9293L30.8955 30.7992L30.896 30.7995L30.188 31.9293ZM30.3115 32.4455L31.4675 33.11L31.4668 33.1112L30.3115 32.4455ZM29.8168 32.5744L29.1102 33.7051L29.1093 33.7045L29.8168 32.5744ZM25.6415 29.9604L24.934 31.0906L24.9327 31.0897L25.6415 29.9604ZM24.7695 30.188L25.9251 30.8531L25.9251 30.8532L24.7695 30.188ZM24.6973 30.6901L23.4006 31.0007L23.3998 30.9975L24.6973 30.6901ZM24.9876 31.0979L24.2801 32.2281L24.279 32.2273L24.9876 31.0979ZM26.0113 31.7387L26.7188 30.6086L26.7188 30.6086L26.0113 31.7387ZM29.163 33.7119L29.8705 32.5817L29.871 32.582L29.163 33.7119ZM29.2865 34.2281L30.4425 34.8925L30.4417 34.8938L29.2865 34.2281ZM28.7918 34.3569L29.4993 33.2268L29.5007 33.2277L28.7918 34.3569ZM25.6401 32.3838L26.3471 31.2533L26.3476 31.2537L25.6401 32.3838ZM25.159 32.3091L24.8224 31.0189L24.8224 31.0189L25.159 32.3091ZM24.7681 32.6114L23.6118 31.9475L23.6123 31.9467L24.7681 32.6114ZM24.6959 33.1134L23.3993 33.4241L23.3986 33.4212L24.6959 33.1134ZM24.9863 33.5212L24.2788 34.6514L24.2777 34.6507L24.9863 33.5212ZM31.3755 37.5207L32.0829 36.3906L32.083 36.3906L31.3755 37.5207ZM34.741 38.1533L35.0188 39.4573L35.0187 39.4574L34.741 38.1533ZM37.3487 36.2711L36.1928 35.6066L36.193 35.6063L37.3487 36.2711ZM37.0008 31.4892L36.863 30.163L37.5919 30.0873L38.0465 30.662L37.0008 31.4892ZM37.9674 36.6577L39.1235 37.3221C38.2668 38.8129 36.8507 39.8345 35.1637 40.1941L34.8858 38.8901L34.6078 37.586C35.5647 37.382 36.3372 36.8185 36.8114 35.9934L37.9674 36.6577ZM34.8858 38.8901L35.1632 40.1942C33.4965 40.5487 31.7675 40.2154 30.2978 39.2959L31.005 38.1656L31.7122 37.0352C32.6277 37.608 33.6546 37.7888 34.6083 37.5859L34.8858 38.8901ZM31.005 38.1656L30.2975 39.2957L23.9083 35.2963L24.6158 34.1661L25.3232 33.0359L31.7125 37.0354L31.005 38.1656ZM24.6158 34.1661L23.9084 35.2963C23.2925 34.9108 22.8674 34.3028 22.7004 33.6063L23.9969 33.2953L25.2935 32.9843C25.2984 33.005 25.3052 33.0168 25.3095 33.0228C25.3137 33.0287 25.318 33.0326 25.3232 33.0359L24.6158 34.1661ZM23.9969 33.2953L22.7 33.6046C22.5343 32.91 22.6376 32.181 22.9944 31.56L24.1505 32.2243L25.3065 32.8885C25.2908 32.9159 25.2848 32.9479 25.2939 32.986L23.9969 33.2953ZM24.1505 32.2243L22.994 31.5606C23.23 31.1494 23.5558 30.8357 23.9124 30.613L24.6187 31.7439L25.325 32.8748C25.3137 32.8819 25.3083 32.887 25.3067 32.8886C25.3054 32.8899 25.306 32.8894 25.3069 32.8879L24.1505 32.2243ZM24.6187 31.7439L23.8904 32.8607L23.8886 32.8595L24.6169 31.7427L25.3453 30.6259L25.3471 30.6271L24.6187 31.7439ZM24.6169 31.7427L23.9095 32.8729C23.2939 32.4875 22.8683 31.8794 22.7017 31.1822L23.9985 30.8724L25.2954 30.5625C25.3001 30.5823 25.3066 30.5937 25.3108 30.5996C25.3148 30.6053 25.319 30.6092 25.3244 30.6125L24.6169 31.7427ZM23.9985 30.8724L22.7021 31.1838C22.5348 30.4876 22.6385 29.7576 22.9955 29.1362L24.1516 29.8004L25.3077 30.4646C25.2917 30.4925 25.2861 30.524 25.295 30.561L23.9985 30.8724ZM24.1516 29.8004L22.9963 29.1349C23.2311 28.7272 23.5555 28.4054 23.925 28.1779L24.6242 29.3132L25.3233 30.4486C25.3195 30.4509 25.3169 30.4531 25.3148 30.4552C25.313 30.4571 25.3102 30.4602 25.3069 30.466L24.1516 29.8004ZM24.6242 29.3132L23.8466 30.3964C23.3194 30.0179 22.9346 29.462 22.7775 28.8063L24.0742 28.4957L25.3708 28.185C25.3737 28.1972 25.3776 28.2046 25.3811 28.2098C25.3848 28.2152 25.3909 28.2223 25.4017 28.2301L24.6242 29.3132ZM24.0742 28.4957L22.7777 28.8069C22.6106 28.1108 22.714 27.3808 23.0715 26.7593L24.2272 27.4242L25.383 28.089C25.3675 28.1159 25.3616 28.1469 25.3707 28.1845L24.0742 28.4957ZM24.2272 27.4242L23.0709 26.7602C23.4295 26.1357 24.016 25.6736 24.7248 25.4887L25.0613 26.7789L25.3978 28.069C25.3972 28.0692 25.3974 28.0692 25.398 28.0689C25.3985 28.0686 25.3986 28.0685 25.3982 28.0688C25.3978 28.0691 25.3917 28.0738 25.3835 28.0881L24.2272 27.4242ZM25.0613 26.7789L24.7234 25.489C24.9434 25.4314 25.1682 25.4026 25.3925 25.4026V26.736V28.0693C25.3964 28.0693 25.3986 28.0688 25.3992 28.0687L25.0613 26.7789ZM25.3925 26.736L25.394 25.4027C25.8481 25.4031 26.2781 25.5239 26.655 25.7297L26.0161 26.9L25.3772 28.0703C25.3701 28.0664 25.3679 28.0662 25.3711 28.0671C25.3745 28.068 25.3815 28.0693 25.3911 28.0693L25.3925 26.736ZM26.0161 26.9L24.6842 26.8395C24.7057 26.3652 24.8426 25.8654 25.1405 25.4172L26.2509 26.1552L27.3614 26.8932C27.3639 26.8894 27.3505 26.9075 27.3481 26.9604L26.0161 26.9ZM26.2509 26.1552L25.1403 25.4175C25.9558 24.1897 27.5791 23.8743 28.8061 24.6425L28.0985 25.7726L27.3909 26.9027C27.3789 26.8952 27.3712 26.8933 27.368 26.8928C27.364 26.8921 27.3614 26.8924 27.3604 26.8926C27.3593 26.8928 27.36 26.8928 27.3618 26.8917C27.3627 26.8911 27.3633 26.8905 27.3636 26.8903C27.3639 26.8899 27.3631 26.8906 27.3616 26.8929L26.2509 26.1552ZM28.0985 25.7726L28.8059 24.6424L34.038 27.9172L33.3306 29.0474L32.6232 30.1776L27.3911 26.9028L28.0985 25.7726ZM33.3306 29.0474L32.1535 29.6737L31.4791 28.4062L32.6562 27.7799L33.8332 27.1536L34.5077 28.4211L33.3306 29.0474ZM32.6562 27.7799L31.4803 28.4086C31.004 27.5178 31.0224 26.4321 31.5252 25.5572L32.6812 26.2216L33.8372 26.886C33.7913 26.9658 33.7908 27.0742 33.832 27.1512L32.6562 27.7799ZM32.6812 26.2216L31.5255 25.5567C31.7735 25.1257 32.1297 24.7643 32.5607 24.512L33.2341 25.6628L33.9076 26.8136C33.8821 26.8285 33.8563 26.8529 33.8369 26.8866L32.6812 26.2216ZM33.2341 25.6628L32.5672 24.5082C32.9611 24.2807 33.3949 24.1697 33.8254 24.1697V25.5031V26.8364C33.855 26.8364 33.8824 26.8281 33.9011 26.8174L33.2341 25.6628ZM33.8254 25.5031L33.8262 24.1697C34.7473 24.1702 35.6197 24.6774 36.0746 25.5351L34.8968 26.1599L33.7189 26.7847C33.7223 26.7912 33.733 26.8055 33.753 26.8175C33.7713 26.8284 33.7955 26.8364 33.8247 26.8364L33.8254 25.5031ZM34.8968 26.1599L36.074 25.5338C36.8507 26.9941 38.313 29.7419 38.4146 29.9315L37.2395 30.5614L36.0643 31.1913C35.96 30.9968 34.4945 28.2429 33.7196 26.786L34.8968 26.1599ZM37.2395 30.5614L38.3526 29.8275C38.3707 29.8549 38.4338 29.9493 38.4899 30.0326L37.3842 30.7777L36.2785 31.5227C36.2212 31.4378 36.152 31.3343 36.1263 31.2953L37.2395 30.5614ZM37.3842 30.7777L38.489 30.0312C38.5154 30.0703 38.5498 30.1164 38.6006 30.1803L37.5567 31.0097L36.5128 31.8392C36.443 31.7514 36.3609 31.6448 36.2794 31.5241L37.3842 30.7777ZM37.5567 31.0097L38.6026 30.1828C40.2486 32.2648 40.4474 35.0197 39.1232 37.3224L37.9674 36.6578L36.8115 35.9931C37.5939 34.6326 37.4776 33.0596 36.5107 31.8366L37.5567 31.0097ZM37.9674 36.6578L37.5205 35.4015L37.5205 35.4015L37.9674 36.6577L38.4143 37.914L38.4143 37.914L37.9674 36.6578ZM37.0004 31.4892L35.955 32.3168C35.8741 32.2146 35.7795 32.0912 35.6874 31.9542L36.7941 31.2105L37.9007 30.4668C37.9369 30.5207 37.9832 30.5825 38.0459 30.6617L37.0004 31.4892ZM36.7941 31.2105L35.6891 31.9567C35.6086 31.8375 35.5223 31.7113 35.4651 31.6125C35.4268 31.5463 35.3763 31.451 35.3339 31.3304C35.2927 31.2134 35.2745 31.1134 35.2704 31.0925L36.5793 30.8385L37.8883 30.5845C37.8915 30.6014 37.8794 30.5307 37.8494 30.4454C37.8182 30.3565 37.7839 30.2953 37.773 30.2766C37.7679 30.2678 37.766 30.265 37.7701 30.2714C37.7739 30.2775 37.7807 30.288 37.7922 30.3054C37.8161 30.3414 37.8488 30.39 37.899 30.4643L36.7941 31.2105ZM36.5793 30.8385L35.4256 31.5068C35.1816 31.0856 34.6073 30.006 33.0886 27.1511L34.2658 26.5249L35.4429 25.8987C36.9827 28.7934 37.521 29.804 37.7331 30.1702L36.5793 30.8385ZM34.2658 26.5249L33.0884 27.1507C33.2933 27.5362 33.8118 27.7282 34.2501 27.4755L33.5841 26.3204L32.9181 25.1653C33.8419 24.6327 34.97 25.009 35.4431 25.8991L34.2658 26.5249ZM33.5841 26.3204L34.2564 27.4719C34.3424 27.4216 34.4114 27.3491 34.4548 27.2735L33.2988 26.6093L32.1427 25.945C32.3261 25.6258 32.587 25.3586 32.9119 25.169L33.5841 26.3204ZM33.2988 26.6093L34.4547 27.2737C34.5406 27.1244 34.5458 26.9437 34.4611 26.7853L33.2854 27.4143L32.1098 28.0434C31.7573 27.3845 31.7734 26.5875 32.1428 25.9448L33.2988 26.6093ZM33.2854 27.4143L34.4626 26.7882L35.7898 29.2834L34.6126 29.9095L33.4354 30.5356L32.1083 28.0404L33.2854 27.4143ZM34.6126 29.9095L35.7896 29.2831C36.1385 29.9386 36.0309 30.7603 35.4954 31.3008L34.5482 30.3623L33.6011 29.4239C33.3 29.7278 33.2452 30.1783 33.4356 30.536L34.6126 29.9095ZM34.5482 30.3623L35.4972 31.2989C34.9423 31.8612 34.0775 31.9623 33.4089 31.5472L34.112 30.4144L34.8152 29.2816C34.4274 29.0409 33.9203 29.1005 33.5992 29.4258L34.5482 30.3623ZM34.112 30.4144L33.4046 31.5446L27.02 27.5479L27.7274 26.4177L28.4349 25.2875L34.8195 29.2842L34.112 30.4144ZM27.7274 26.4177L27.0204 27.5481C27.2722 27.7056 27.7035 27.6994 27.9547 27.3208L26.8437 26.5836L25.7328 25.8463C26.3561 24.907 27.5808 24.7533 28.4345 25.2873L27.7274 26.4177ZM26.8437 26.5836L27.9544 27.3212C28.0521 27.1742 28.0852 26.9874 28.0444 26.8159L26.7473 27.1247L25.4502 27.4335C25.32 26.8865 25.4213 26.3152 25.733 25.8459L26.8437 26.5836ZM26.7473 27.1247L28.044 26.8141C28.0055 26.6537 27.9021 26.5003 27.745 26.402L27.0377 27.5323L26.3304 28.6626C25.8811 28.3815 25.5713 27.9388 25.4507 27.4354L26.7473 27.1247ZM27.0377 27.5323L27.6546 26.3503C27.7766 26.414 27.8654 26.4844 27.9205 26.533C27.9477 26.5571 27.9687 26.5776 27.9813 26.5902C27.9877 26.5967 27.9929 26.6019 27.996 26.6051C27.9976 26.6068 27.9988 26.6081 27.9996 26.6089C28 26.6093 28.0003 26.6097 28.0005 26.6099C28.0006 26.61 28.0007 26.6101 28.0008 26.6101C28.0008 26.6101 28.0008 26.6102 28.0008 26.6102C28.0008 26.6102 28.0008 26.6102 28.0008 26.6102C28.0008 26.6102 28.0008 26.6102 28.0008 26.6102C28.0013 26.6106 27.9989 26.6082 27.9961 26.6053C27.993 26.6021 27.9879 26.5969 27.9816 26.5905C27.969 26.578 27.9481 26.5575 27.921 26.5335C27.8661 26.4851 27.7775 26.4148 27.6557 26.3512L27.0388 27.5333L26.4219 28.7153C26.2999 28.6516 26.2111 28.5812 26.156 28.5325C26.1288 28.5085 26.1078 28.488 26.0952 28.4754C26.0888 28.4689 26.0836 28.4636 26.0805 28.4604C26.0789 28.4588 26.0776 28.4575 26.0769 28.4567C26.0765 28.4563 26.0762 28.4559 26.076 28.4557C26.0759 28.4556 26.0758 28.4555 26.0757 28.4555C26.0757 28.4554 26.0757 28.4554 26.0757 28.4554C26.0757 28.4554 26.0756 28.4554 26.0756 28.4554C26.0756 28.4554 26.0756 28.4554 26.0756 28.4554C26.0752 28.4549 26.0776 28.4574 26.0804 28.4603C26.0834 28.4635 26.0885 28.4687 26.0949 28.4751C26.1074 28.4876 26.1284 28.5081 26.1555 28.532C26.2104 28.5805 26.299 28.6508 26.4208 28.7144L27.0377 27.5323ZM27.0388 27.5333L27.7463 26.4031L31.9208 29.0164L31.2133 30.1465L30.5058 31.2767L26.3313 28.6634L27.0388 27.5333ZM31.2133 30.1465L31.9213 29.0167C32.7195 29.5168 32.9404 30.5484 32.4928 31.3271L31.3368 30.6627L30.1808 29.9983C29.9382 30.4203 30.0485 30.9901 30.5053 31.2763L31.2133 30.1465ZM31.3368 30.6627L32.492 31.3284C32.027 32.1355 30.9705 32.4453 30.1343 31.9215L30.8421 30.7916L31.5499 29.6616C31.056 29.3522 30.4416 29.5457 30.1816 29.997L31.3368 30.6627ZM30.8421 30.7916L30.1347 31.9217L25.0096 28.7136L25.7171 27.5835L26.4246 26.4533L31.5496 29.6614L30.8421 30.7916ZM25.7171 27.5835L25.0101 28.7139C25.1709 28.8145 25.3772 28.8502 25.5745 28.7985L25.2362 27.5088L24.8979 26.2191C25.4239 26.0811 25.9725 26.1706 26.4241 26.453L25.7171 27.5835ZM25.2362 27.5088L25.5719 28.7992C25.7664 28.7486 25.9177 28.6218 26.0021 28.4746L24.8454 27.8115L23.6886 27.1484C23.9477 26.6964 24.3763 26.3548 24.9005 26.2184L25.2362 27.5088ZM24.8454 27.8115L26.0005 28.4774C26.0852 28.3305 26.107 28.1601 26.0705 28.0059L24.7731 28.3133L23.4757 28.6208C23.3579 28.1236 23.4303 27.5965 23.6902 27.1456L24.8454 27.8115ZM24.7731 28.3133L26.0697 28.0027C26.0315 27.8432 25.9287 27.69 25.7713 27.5914L25.0632 28.7212L24.3552 29.8509C23.906 29.5694 23.5969 29.1265 23.4765 28.624L24.7731 28.3133ZM25.0632 28.7212L25.7706 27.5909L26.7678 28.215L26.0605 29.3453L25.3532 30.4755L24.3559 29.8514L25.0632 28.7212ZM26.0605 29.3453L26.768 28.2151L30.8955 30.7992L30.188 31.9293L29.4805 33.0595L25.353 30.4754L26.0605 29.3453ZM30.188 31.9293L30.896 30.7995C31.6942 31.2997 31.9151 32.3313 31.4675 33.11L30.3115 32.4455L29.1555 31.7811C28.913 32.2031 29.0232 32.7729 29.48 33.0592L30.188 31.9293ZM30.3115 32.4455L31.4668 33.1112C31.0009 33.9197 29.9446 34.2266 29.1102 33.7051L29.8168 32.5744L30.5235 31.4437C30.0313 31.1361 29.4171 31.3271 29.1563 31.7798L30.3115 32.4455ZM29.8168 32.5744L29.1093 33.7045L24.934 31.0906L25.6415 29.9604L26.349 28.8303L30.5243 31.4443L29.8168 32.5744ZM25.6415 29.9604L24.9327 31.0897C25.2977 31.3189 25.7431 31.1693 25.9251 30.8531L24.7695 30.188L23.6139 29.5229C24.1572 28.5791 25.3847 28.225 26.3503 28.8311L25.6415 29.9604ZM24.7695 30.188L25.9251 30.8532C26.0092 30.707 26.0312 30.537 25.9947 30.3827L24.6973 30.6901L23.3998 30.9975C23.282 30.5001 23.3546 29.9734 23.6139 29.5229L24.7695 30.188ZM24.6973 30.6901L25.9939 30.3794C25.9554 30.2188 25.852 30.0662 25.6962 29.9684L24.9876 31.0979L24.279 32.2273C23.831 31.9463 23.5213 31.5043 23.4006 31.0007L24.6973 30.6901ZM24.9876 31.0979L25.6951 29.9677L26.7188 30.6086L26.0113 31.7387L25.3038 32.8689L24.2801 32.228L24.9876 31.0979ZM26.0113 31.7387L26.7188 30.6086L29.8705 32.5817L29.163 33.7119L28.4554 34.842L25.3038 32.8688L26.0113 31.7387ZM29.163 33.7119L29.871 32.582C30.6691 33.0822 30.89 34.1138 30.4425 34.8925L29.2865 34.2281L28.1305 33.5636C27.8879 33.9856 27.9982 34.5554 28.455 34.8417L29.163 33.7119ZM29.2865 34.2281L30.4417 34.8938C29.9774 35.6995 28.9208 36.0122 28.0829 35.4862L28.7918 34.3569L29.5007 33.2277C29.005 32.9165 28.3905 33.1124 28.1312 33.5623L29.2865 34.2281ZM28.7918 34.3569L28.0842 35.487L24.9326 33.5139L25.6401 32.3838L26.3476 31.2537L29.4993 33.2268L28.7918 34.3569ZM25.6401 32.3838L24.9331 33.5142C25.0943 33.615 25.3007 33.6501 25.4955 33.5993L25.159 32.3091L24.8224 31.0189C25.3478 30.8819 25.8951 30.9706 26.3471 31.2533L25.6401 32.3838ZM25.159 32.3091L25.4955 33.5993C25.6884 33.5489 25.8391 33.4237 25.924 33.276L24.7681 32.6114L23.6123 31.9467C23.872 31.4951 24.3008 31.155 24.8224 31.0189L25.159 32.3091ZM24.7681 32.6114L25.9245 33.2752C26.0073 33.1309 26.0302 32.9617 25.9932 32.8056L24.6959 33.1134L23.3986 33.4212C23.2803 32.9226 23.3542 32.3963 23.6118 31.9475L24.7681 32.6114ZM24.6959 33.1134L25.9925 32.8028C25.9541 32.6422 25.8507 32.4895 25.6948 32.3918L24.9863 33.5212L24.2777 34.6507C23.8297 34.3697 23.5199 33.9277 23.3993 33.4241L24.6959 33.1134ZM24.9863 33.5212L25.6937 32.3911L32.0829 36.3906L31.3755 37.5207L30.668 38.6509L24.2788 34.6514L24.9863 33.5212ZM31.3755 37.5207L32.083 36.3906C32.8446 36.8674 33.6892 37.014 34.4633 36.8492L34.741 38.1533L35.0187 39.4574C33.5268 39.7751 31.98 39.4723 30.668 38.6509L31.3755 37.5207ZM34.741 38.1533L34.4631 36.8492C35.2224 36.6874 35.8252 36.246 36.1928 35.6066L37.3487 36.2711L38.5047 36.9356C37.7515 38.246 36.5019 39.1413 35.0188 39.4573L34.741 38.1533ZM37.3487 36.2711L36.193 35.6063C36.8275 34.5032 36.7385 33.3068 35.9551 32.3164L37.0008 31.4892L38.0465 30.662C39.5096 32.5115 39.6812 34.8904 38.5045 36.9359L37.3487 36.2711ZM37.0008 31.4892L37.1386 32.8154L37.1382 32.8154L37.0004 31.4892L36.8627 30.163L36.863 30.163L37.0008 31.4892Z" fill="#4CAF4F" mask="url(#path-3-inside-1_16_1455)"/>
</svg>
